<?xml version="1.0" encoding="utf-8"?>
<!-- Generator: Adobe Illustrator 19.0.0, SVG Export Plug-In . SVG Version: 6.00 Build 0)  -->
<svg version="1.1" xmlns="http://www.w3.org/2000/svg" xmlns:xlink="http://www.w3.org/1999/xlink" x="0px" y="0px"
	 viewBox="0 0 601 439.7" enable-background="new 0 0 601 439.7" xml:space="preserve">
<g id="Capa_7">
</g>
<g id="Capa_5">
	<g>
		<path fill="#E8394A" stroke="#A51D2D" stroke-width="2" stroke-miterlimit="10" d="M365,120.4c0,0,8.5,5.5,9,7s2,5,2,5
			S498.5-6.3,499-4.8s71.5-0.5,71.5-0.5S560,67.2,559,70.2c-2.1,6.2-32,73-34,74.5s-65.8,23.8-66.3,26.3S419,188.7,419,188.7
			s-7.7,11.7-10.3,13.3c-1.3,0.8-17.3,3.8-19.3,4.3s-17.7,16-19.7,17s-31.1-0.9-31.7,4.7c-0.3,3.2,2.5,6.2,2,7.3
			c-1.5,3-23.5,25-30,26s-35.5,2.5-37,1.5s-16,16.5-19,17.5s-10.5-6-13-6s-6,0.5-6,0.5s6.5,9.5,7,11.5s-5,7-6.5,7s-12-6.5-14-7.5
			s-8,0.5-8,2s6.5,6,7,8s1,15.5-2,17s-53,40-53,40l3.5,19l32.5,9.5c0,0,6,4.5,6.5,7s5.5,12,1.5,13s-14.5,2.5-19.5,1
			s-20.5-5.5-25-5.5s-20-4.5-20-4.5s-12,7.7-14,6.7c-0.9-0.4-12-6.8-17.7-7.7c-4.3-0.7,2.4-15.2,2.7-16.7c0.5-2.5,20.5-7.3,20.5-7.3
			l15-15l-24.8-2.3c0,0-1.7-11.3-0.7-15.8s19.7-34.8,19.7-34.8s-17.8-17-18.3-19s-4.7-17.7-4.7-17.7l99.8-32.8L365,120.4z"/>
		<path fill="#E8394A" stroke="#A51D2D" stroke-width="2" stroke-miterlimit="10" d="M209,295.9c0,0,2,9.2,4,10.8c2,1.7,6,5,6,5"/>
		<path fill="#E8394A" stroke="#A51D2D" stroke-width="2" stroke-miterlimit="10" d="M225.3,275.1c0,0,2.3,10,3,11
			c0.7,1,7.2,7.3,7.2,7.3"/>
		<path fill="#E8394A" stroke="#A51D2D" stroke-width="2" stroke-miterlimit="10" d="M540,46.2c0,0,10.3,16,11,17
			c0.7,1,7.2,7.3,7.2,7.3"/>
		<path fill="#E8394A" stroke="#A51D2D" stroke-width="2" stroke-miterlimit="10" d="M231,266.9c0,0,4,7.5,5.7,9.8
			c1.7,2.3,4.7,11,4.7,11"/>
		<path fill="#E8394A" stroke="#A51D2D" stroke-width="2" stroke-miterlimit="10" d="M242,262.4c0,0,5.3,9.3,7.3,11.7
			c2,2.3,3.3,6.3,3.3,6.3h1.3l-1-11.7l-4-7.3"/>
		<path fill="#E8394A" stroke="#A51D2D" stroke-width="2" stroke-miterlimit="10" d="M263.3,245.4c0,0,7,8,7.3,9
			c0.3,1,2.3,8.5,2.3,8.5"/>
		<polyline fill="#E8394A" stroke="#A51D2D" stroke-width="2" stroke-miterlimit="10" points="329,223.4 335,230.7 340,235.4 		"/>
		<polyline fill="#E8394A" stroke="#A51D2D" stroke-width="2" stroke-miterlimit="10" points="335.3,216.9 340.3,223.1 346.3,223.7 
					"/>
		<polyline fill="#E8394A" stroke="#A51D2D" stroke-width="2" stroke-miterlimit="10" points="360,201.4 364.3,216.4 370.2,222.7 		
			"/>
		<polyline fill="#E8394A" stroke="#A51D2D" stroke-width="2" stroke-miterlimit="10" points="511.5,118.2 519.5,138.2 525.3,144.6 
					"/>
		<polyline fill="#E8394A" stroke="#A51D2D" stroke-width="2" stroke-miterlimit="10" points="398.7,184.1 401.3,196.1 409.5,201.9 
					"/>
		<line fill="#E8394A" stroke="#A51D2D" stroke-width="2" stroke-miterlimit="10" x1="408.3" y1="179.6" x2="419.8" y2="188.6"/>
		<polyline fill="#E8394A" stroke="#A51D2D" stroke-width="2" stroke-miterlimit="10" points="441,157.2 447.7,169.7 458.7,170.7 		
			"/>
	</g>
</g>
<g id="Capa_4">
	<g>
		<g>
			<path fill="#BC8E50" d="M185,84.2c-3-0.2-23-18.5-26-21.5c-3-3-3-17-3.3-20c-0.3-3,1.7-4.7,0.3-7.3c-1.3-2.7-17-25.7-17-27.3
				c0-1.7,0-10,0-10l114.7-1L244,45.4l-40,41.7L185,84.2z"/>
		</g>
		<g>
			<path fill="#AF7840" d="M204.4,88.1l-19.5-2.9c-3.8-0.2-26.3-21.6-26.6-21.8c-2.5-2.5-3.1-10.4-3.4-17.7
				c-0.1-1.3-0.1-2.3-0.2-2.9c-0.2-1.5,0.2-2.6,0.4-3.7c0.3-1.2,0.6-2.1,0-3.3c-0.5-1-3.2-5.1-6-9.4C140.2,12.7,138,9.1,138,8.1v-11
				l116.9-1l-10,49.8L204.4,88.1z M140,8c0.4,1.5,6.6,11,10.8,17.3c3.1,4.8,5.6,8.6,6.1,9.6c0.9,1.9,0.5,3.4,0.1,4.7
				c-0.3,0.9-0.5,1.8-0.4,2.9c0.1,0.6,0.1,1.7,0.2,3c0.2,4.6,0.7,14.3,2.9,16.4c4,4,22.7,20.9,25.4,21.2l18.6,2.8l39.4-41.1
				l9.4-46.8L140-0.9V8z"/>
		</g>
	</g>
	<g>
		<g>
			<path fill="#BC8E50" d="M374.3,199.4c0,0,32.7-16.3,34.3-19c1.7-2.7,0-6,3-7s42-24.3,42-24.3s57.3-23.3,61.3-30.3
				c2.3-4,23-49.8,23-59c0-7,12-59.7,12-59.7L221.7-1.3c0,0-10.7,14.7-10.3,16.3c0.3,1.7,5.3,7,8,6.7c2.7-0.3,22.7-7.7,24.3-6.3
				c1.7,1.3,1,9.7-0.3,11.3c-1.3,1.7-7.3,11.3-7.3,11.3L374.3,199.4z"/>
		</g>
		<g>
			<path fill="#AF7840" d="M374.1,200.6L234.8,38.2l0.4-0.6c0.2-0.4,6-9.7,7.4-11.4c1.1-1.4,1.5-8.7,0.6-9.9c0,0-0.1,0-0.2,0
				c-2.4,0-10.1,2.5-15.8,4.3c-4.2,1.3-6.7,2.1-7.6,2.2c-3.2,0.4-8.7-5.3-9.1-7.5c-0.3-1.4,3.3-7.2,10.5-17.1l0.3-0.4l0.5,0
				l329.6,1.3L551,0.3c-0.1,0.5-12,52.6-12,59.4c0,9.7-21.3,56.3-23.1,59.5c-4,7.1-55.5,28.2-61.8,30.7
				c-4.3,2.6-39.1,23.4-42.1,24.4c-1.1,0.4-1.2,1-1.4,2.7c-0.1,1.2-0.3,2.5-1.1,3.8c-1.7,2.8-29.2,16.6-34.7,19.4L374.1,200.6z
				 M237.2,38l137.3,160.2c15.4-7.7,32.1-16.6,33.2-18.3c0.6-0.9,0.7-1.9,0.8-3c0.2-1.6,0.4-3.6,2.8-4.4
				c2.1-0.7,26.2-14.9,41.8-24.2l0.1-0.1c22.9-9.3,58-25,60.8-29.9c2.5-4.4,22.9-49.7,22.9-58.5c0-6.5,9.9-50.5,11.7-58.7L222.2-0.3
				c-4.7,6.5-9.6,13.8-9.8,15.2c0.4,1.4,4.9,6,6.9,5.8c0.8-0.1,4-1.1,7.3-2.2c6.1-1.9,13.7-4.3,16.4-4.3c0.6,0,1.1,0.1,1.4,0.4
				c2.3,1.9,1.3,11-0.2,12.7C243.1,28.6,239.4,34.5,237.2,38z"/>
		</g>
	</g>
	<g>
		<g>
			<path fill="#BC8E50" d="M219.3,101.7c0,0-15-18.7-14.8-22.5c0.2-3.8,9.5-12.8,11.5-14.2c2-1.3,15.7-8.3,16-10.7
				c0.3-2.3,1.3-18,3.3-19s35.3-17.1,37.3-15.4c2,1.7,12.7,13.7,14.7,14.4c2,0.7,33,0.7,34,2.7s6.7,26,8,27c1.3,1,8.7,3,9,5.3
				c0.3,2.3-1.7,28.3-1.7,28.3l-75,14.7L219.3,101.7z"/>
		</g>
		<g>
			<path fill="#AF7840" d="M261.6,113.4l-42.9-10.8l-0.2-0.3c-2.5-3.2-15.2-19.2-15.1-23.2c0.2-4.5,10.2-13.8,11.9-15
				c0.5-0.3,1.6-1,3.1-1.8c3.3-1.8,11.9-6.7,12.4-8.2c0.1-0.4,0.1-1.4,0.3-2.6c1.1-12.1,2-16.3,3.6-17.1c0.3-0.2,32-15.6,37.2-15.6
				c0.5,0,0.9,0.1,1.2,0.4c0.7,0.6,2.3,2.3,4.4,4.5c3.1,3.2,8.8,9.3,9.9,9.7c0.7,0.2,5.5,0.4,10.2,0.5c19.1,0.7,23.6,1.2,24.4,2.6
				c0.4,0.8,1.3,4.3,2.9,10.2c1.6,6.1,4,15.2,4.9,16.5c0.4,0.2,1.4,0.6,2.3,1c3.8,1.5,6.7,2.9,7,4.9c0.3,2.4-1.5,25.9-1.7,28.6
				l-0.1,0.8L261.6,113.4z M219.9,100.8l41.8,10.5l74-14.5c0.8-10.4,1.8-25.8,1.6-27.4c-0.1-1-4.1-2.6-5.8-3.3
				c-1.5-0.6-2.3-1-2.8-1.3c-0.9-0.7-1.9-3.9-5.5-17.5c-1.1-4.2-2.3-8.6-2.7-9.7c-1.9-1-15.4-1.4-22.7-1.7c-7.2-0.3-10-0.4-10.8-0.6
				c-1.3-0.4-4.5-3.6-10.7-10.2c-1.8-1.9-3.4-3.6-4.1-4.3c0,0,0,0,0,0c-4.1,0-30.9,12.7-36.3,15.4c-1.2,1.1-2.2,11.9-2.5,15.5
				c-0.1,1.3-0.2,2.3-0.3,2.8c-0.3,1.9-4.7,4.7-13.4,9.6c-1.4,0.8-2.6,1.4-3,1.7c-2,1.3-10.9,10.1-11.1,13.4
				C205.4,81.6,213.8,93.2,219.9,100.8z"/>
		</g>
	</g>
	<g>
		<g>
			<path fill="#BC8E50" d="M161.5,382.7c0,0-16,0.5-18,2s-6.5,5-9.5,4.5s-4-8-5.5-9.5s-9.5-2-11-4.5s0.5-11,2.5-12s8-4,8-4
				s-3.5-7.5-3-9.5s8-5.5,7.5-7s-6.5-5.5-6.5-8.5s0.5-11,2-12.5s0.5-6.5-1-8s-3-13.5-2.5-16s5-6,5-8s-3-6.5-3-8s10-15,8-17
				s-9,5.5-9.5,4s-4-5.5-2.5-7.5s7-16,6.5-19s-2.5-12.5,0-15.5s16-21,17.5-24.5s-1-24.5,1-28.5s14-35.5,16-39s5.5-26.5,9.5-32.5
				s10-17,12-18s17-6,19.5-5s13,16,13,19.5s-55.8,242.7-55.8,242.7L161.5,382.7z"/>
		</g>
		<g>
			<path fill="#AF7840" d="M134.6,390.3c-0.3,0-0.5,0-0.8-0.1c-2.5-0.4-3.7-3.7-4.7-6.7c-0.4-1.3-1-2.7-1.3-3.1
				c-0.4-0.4-2.4-0.9-3.9-1.3c-3-0.8-6.2-1.6-7.2-3.4c-1.3-2.1-0.5-6.5,0.2-8.7c0.5-1.8,1.4-4,2.7-4.7l7.1-3.6
				c-1.1-2.4-3.1-7.4-2.7-9.3c0.3-1.2,1.9-2.4,4.4-4.2c1.1-0.8,2.7-1.9,3.1-2.4c-0.3-0.4-1.2-1.3-1.9-1.9c-2-2-4.6-4.4-4.6-6.7
				c0-0.1,0.1-11,2.3-13.2c0.9-0.9,0.3-5.3-1-6.6c-1.9-1.9-3.3-14.4-2.8-16.9c0.3-1.5,1.6-3.1,2.8-4.6c0.9-1.1,2.1-2.6,2.1-3.2
				c0-0.8-0.9-2.6-1.6-4.1c-0.9-1.9-1.4-3-1.4-3.9c0-0.7,0.6-1.7,2.9-5.5c1.7-2.9,5.8-9.5,5.4-10.9c0,0-0.1,0-0.2,0
				c-1.1,0-3.3,1.6-4.7,2.6c-1.8,1.3-2.7,1.9-3.6,1.9c-0.6,0-1.1-0.3-1.2-0.9c-0.1-0.3-0.5-0.9-0.9-1.6c-1.3-2.1-3-4.9-1.5-6.9
				c1.4-1.9,6.8-15.6,6.3-18.2c0-0.3-0.1-0.6-0.2-1c-1.1-6.4-1.9-12.6,0.4-15.3c2.8-3.4,16-21,17.3-24.3c0.6-1.4,0.4-7.2,0.3-12.4
				c-0.3-8.4-0.3-14,0.8-16.2c0.9-1.8,3.8-9.2,6.9-17c3.9-9.9,8-20,9.1-22c0.7-1.3,1.8-6,3-11.1c1.9-8.3,4.1-17.7,6.6-21.5
				c1.3-2,2.9-4.6,4.4-7.1c4-6.5,6.4-10.5,8-11.3c1.9-0.9,14.6-5.2,19-5.2c0.6,0,1,0.1,1.3,0.2c2.8,1.1,13.6,16.6,13.6,20.4
				c0,3.5-50,217.8-55.8,242.8l-0.2,42.2l-1,0c-7.5,0.2-16.4,1-17.4,1.8l-0.2,0.2C141.7,387.3,137.8,390.3,134.6,390.3z
				 M133.6,263.4c0.6,0,1.2,0.2,1.6,0.6c1.6,1.6-0.2,5.2-5.1,13.3c-1.1,1.8-2.5,4-2.6,4.5c0,0.4,0.7,1.9,1.2,3
				c0.9,1.8,1.8,3.7,1.8,5c0,1.4-1.2,2.8-2.6,4.5c-1,1.3-2.2,2.7-2.4,3.7c-0.5,2.6,1.2,14,2.2,15.1c1,1,1.7,3,1.9,4.6
				c0.2,1.3,0.3,3.6-0.9,4.9c-0.9,0.9-1.7,7.2-1.7,11.8c0,1.5,2.4,3.8,4,5.3c1.4,1.4,2.2,2.2,2.5,2.9c0.5,1.5-1.4,2.8-3.9,4.6
				c-1.2,0.8-3.4,2.4-3.6,3c-0.3,1,1.3,5.4,2.9,8.8l0.4,0.9l-8.9,4.4c-0.3,0.2-1.1,1.2-1.7,3.4c-0.9,3-1,6.1-0.4,7.2
				c0.7,1.1,3.8,1.9,6,2.5c2.5,0.6,4.1,1.1,4.8,1.8c0.7,0.7,1.2,2.1,1.8,3.8c0.7,2.1,1.8,5.2,3.1,5.4c2.5,0.4,6.6-2.7,8.5-4.1
				l0.3-0.2c1.9-1.5,13-2,17.6-2.2l0.2-40.5l0-0.1c19.2-82.2,55.5-238.6,55.8-242.5c0-3-10.3-17.7-12.4-18.5c0,0-0.2-0.1-0.6-0.1
				c-3.9,0-16.4,4.2-18.1,5c-1.1,0.5-4.6,6.3-7.1,10.5c-1.5,2.5-3.1,5.1-4.5,7.1c-2.3,3.4-4.5,13.1-6.3,20.8
				c-1.3,5.6-2.3,10.1-3.2,11.6c-1.1,1.9-5.3,12.4-9,21.8c-3.1,7.9-6.1,15.3-7,17.2c-1,1.9-0.7,9.3-0.5,15.2
				c0.2,7.1,0.3,11.5-0.4,13.2c-1.6,3.7-15.1,21.7-17.7,24.7c-2,2.4-0.5,10.6,0,13.7c0.1,0.4,0.1,0.7,0.2,1
				c0.6,3.5-5.2,17.8-6.7,19.8c-0.7,0.9,0.8,3.2,1.6,4.6c0.3,0.5,0.6,0.9,0.8,1.3c0.5-0.3,1.4-0.9,2-1.4
				C129.7,265,131.9,263.4,133.6,263.4z"/>
		</g>
	</g>
	<g>
		<g>
			<path fill="#BC8E50" d="M319.3,206.5c0,0,25.8,2.6,29.1,0.6c3.3-2,20.3-0.3,22.3-0.3s10.7-6.3,12.3-9c1.7-2.7-7.7-28-11-30
				c-3.3-2-54.1-2.8-60.8,7.3C304.6,185,300.6,200.2,319.3,206.5z"/>
		</g>
		<g>
			<path fill="#AF7840" d="M341.4,208.8C341.4,208.8,341.4,208.8,341.4,208.8c-8.7,0-22.1-1.3-22.2-1.3l-0.2,0
				c-7.1-2.4-11.6-6.3-13.4-11.5c-2-6-0.2-13.8,4.9-21.5c5.7-8.5,38.4-8.9,44.9-8.9c6.9,0,15.5,0.4,17.2,1.4c3.1,1.9,9.2,18,11,25.5
				c1,4.1,0.7,5.3,0.3,5.9c-1.7,2.8-10.7,9.5-13.2,9.5c-0.4,0-1.4-0.1-2.8-0.2c-2.8-0.2-7.5-0.5-11.6-0.5c-5.3,0-7,0.5-7.5,0.8
				C348.1,208.3,346.7,208.8,341.4,208.8z M319.5,205.5c1.3,0.1,13.7,1.3,21.9,1.3h0c4.9,0,6.2-0.4,6.5-0.6c0.8-0.5,2.6-1.1,8.5-1.1
				c4.1,0,8.9,0.3,11.7,0.5c1.3,0.1,2.3,0.1,2.6,0.1c1.5,0,9.9-6,11.5-8.5c1.2-2.8-7.8-26.9-10.7-28.6c-0.8-0.4-6.4-1.1-16.2-1.1
				c-18.9,0-39.5,2.5-43.2,8c-2.3,3.4-7.3,12.1-4.7,19.7C309,199.9,313,203.3,319.5,205.5z"/>
		</g>
	</g>
	<g>
		<g>
			<path fill="#BC8E50" d="M293.7,104.1c0,0,29-17,31.7-17.7c2.7-0.7,23,2.3,26.3,2.7c3.3,0.3,26,9.3,26.3,11.3
				c0.3,2,2.7,12.7,4.3,13.7c1.7,1,15.3,9,15.3,11s-12,25.7-13,26.7s-24.7,18.7-33.3,15C342.7,163.1,293.7,104.1,293.7,104.1z"/>
		</g>
		<g>
			<path fill="#AF7840" d="M354.1,168.2c-1.2,0-2.3-0.2-3.2-0.6c-8.8-3.7-56-60.5-58-62.9l-0.8-0.9l1-0.6c3-1.7,29.2-17.1,31.9-17.8
				c0.3-0.1,0.8-0.1,1.5-0.1c3.9,0,13.7,1.3,20.2,2.1c2.3,0.3,4.1,0.5,4.9,0.6c2.6,0.3,26.7,9.1,27.2,12.2c0.6,3.3,2.8,12.1,3.9,13
				l0.4,0.2c15.4,9.2,15.4,10.7,15.4,11.6c0,2.6-12.4,26.5-13.3,27.4C384.4,153.4,364.6,168.2,354.1,168.2z M295.2,104.3
				c17.1,20.6,50,58.7,56.5,61.5c0.7,0.3,1.5,0.4,2.4,0.4c9.6,0,28.9-14.3,29.8-15.2c1.2-1.4,12.2-23.3,12.7-25.9
				c-0.3-0.5-2.1-2.6-14.4-9.9l-0.4-0.3c-2.3-1.4-4.5-12.8-4.8-14.2c-1.7-2.1-22.3-10.3-25.5-10.6c-0.8-0.1-2.7-0.3-5-0.6
				c-6.1-0.8-16.2-2.1-20-2.1c-0.7,0-1,0-1,0.1C323.8,87.8,306.8,97.5,295.2,104.3z"/>
		</g>
	</g>
</g>
<g id="Capa_2_copia">
	<g>
		<g>
			<path fill="#FBC875" d="M255.5,333.7c-2.6-0.7-23.5,10-22.5,13.5s10.5,7,12.5,7s8.5-2.5,9-4.5S257.5,334.2,255.5,333.7z"/>
		</g>
		<g>
			<path fill="#F49D62" d="M245.5,355.2c-2.1,0-12.3-3.6-13.5-7.7c-0.2-0.7,0-1.6,0.7-2.4c3.3-4.4,19.1-12.4,22.5-12.4
				c0.2,0,0.4,0,0.5,0.1c1.3,0.3,2,1.9,1.2,8.5c-0.5,3.9-1.2,7.7-1.5,8.7C254.8,352.7,247.5,355.2,245.5,355.2z M255.1,334.7
				c-3,0.3-16.3,6.9-20.3,11c-0.9,0.9-0.9,1.3-0.9,1.3c0.8,2.8,9.6,6.3,11.5,6.3c2,0,7.7-2.5,8-3.7
				C254.4,346.2,255.8,336.5,255.1,334.7z"/>
		</g>
	</g>
	<g>
		<g>
			<path fill="#FBC875" d="M271,332.2c-2.9,0.7-6.5,17-6.5,18.5s3,5.5,4.5,6s13-2.5,15.5-4S273,331.7,271,332.2z"/>
		</g>
		<g>
			<path fill="#F49D62" d="M269.5,357.8C269.5,357.8,269.5,357.8,269.5,357.8c-0.3,0-0.6,0-0.8-0.1c-1.9-0.6-5.2-5-5.2-6.9
				c0-0.7,3.3-18.5,7.3-19.5l0.3,0c3,0,13.3,15.1,14.5,19.6c0.4,1.4,0.2,2.3-0.6,2.8C282.6,355,272.4,357.8,269.5,357.8z
				 M269.3,355.8c0,0,0.1,0,0.2,0h0c2.5,0,11.9-2.5,14.3-3.8c0.2-2.8-10.3-17.4-12.7-18.7c-2,1.3-5.6,15.4-5.6,17.5
				C265.5,351.8,268.2,355.4,269.3,355.8C269.3,355.8,269.3,355.8,269.3,355.8z"/>
		</g>
	</g>
	<g>
		<path fill="#A7D8F6" d="M268.5,282.7c-0.4,0-0.8-0.1-1.1-0.4c-0.6-0.6-0.6-1.5,0-2.1c6.4-6.4,20.2-6.7,34.9-7.1
			c10.7-0.3,21.8-0.5,29.6-3.3c16-5.6,23.3-17.4,19.5-31.4c-0.2-0.8,0.3-1.6,1.1-1.8c0.8-0.2,1.6,0.3,1.8,1.1
			c3.3,12.1-0.7,27.7-21.5,35c-8.3,2.9-19.6,3.2-30.6,3.5c-13.5,0.3-27.4,0.7-32.9,6.2C269.3,282.6,268.9,282.7,268.5,282.7z"/>
	</g>
	<g>
		<path fill="#A7D8F6" d="M335,281.7c-0.6,0-1.2-0.4-1.4-1c-0.3-0.8,0.2-1.6,1-1.9c0.1,0,13.9-4.5,24.1-11.3
			c9.7-6.5,9.3-29,9.3-29.2c0-0.8,0.6-1.5,1.5-1.5c0.8,0,1.5,0.6,1.5,1.5c0,1,0.4,24.4-10.7,31.8c-10.6,7-24.3,11.5-24.9,11.7
			C335.3,281.7,335.2,281.7,335,281.7z"/>
	</g>
	<g>
		<path fill="#A7D8F6" d="M307.5,288.7c-0.6,0-1.1-0.3-1.3-0.8c-0.4-0.7-0.1-1.6,0.7-2c3.2-1.6,10.7-2.6,11-2.6
			c0.8-0.1,1.6,0.5,1.7,1.3c0.1,0.8-0.5,1.6-1.3,1.7c-2,0.3-7.8,1.2-10,2.4C308,288.7,307.7,288.7,307.5,288.7z"/>
	</g>
	<g>
		<path fill="#A7D8F6" d="M205,374.2c-0.1,0-0.2,0-0.3,0c-0.2,0-18.1-3.4-20.2-18.8c-1.7-12.5,32.6-35.4,41.4-39.1
			c5.8-2.4,5.5-3.8,4.7-7.2c-0.3-1.4-0.7-3-0.7-4.9c0-2,0.6-3.5,1.7-4.3c1.9-1.4,4.4-0.6,6.7,0.1c1,0.3,2,0.6,2.6,0.6
			c1.7,0,4.3-2.6,5.3-3.9c0.5-0.7,1.5-0.8,2.1-0.3c0.7,0.5,0.8,1.5,0.3,2.1c-0.4,0.5-4.1,5.1-7.7,5.1c-1.1,0-2.2-0.4-3.5-0.8
			c-1.3-0.4-3.4-1.1-4-0.6c-0.3,0.2-0.5,0.9-0.5,1.9c0,1.6,0.3,3,0.6,4.3c1,4.4,1,7.4-6.5,10.6c-10,4.2-40.9,26.1-39.6,35.9
			c1.8,13.2,17.6,16.2,17.8,16.2c0.8,0.1,1.4,0.9,1.2,1.7C206.3,373.7,205.7,374.2,205,374.2z"/>
	</g>
	<g>
		<path fill="#A7D8F6" d="M279.5,362.7c-0.6,0-1.2-0.4-1.4-1c-0.3-0.8,0.1-1.6,0.9-1.9c12.2-4.2,11.8-9.9,11.1-12.1
			c-0.8-2.3-4.8-8.1-6.3-10.1c-0.5-0.7-0.3-1.6,0.3-2.1c0.7-0.5,1.6-0.3,2.1,0.3c0.6,0.8,5.7,7.8,6.7,10.9
			c0.8,2.4,2.2,10.6-12.9,15.9C279.8,362.7,279.7,362.7,279.5,362.7z"/>
	</g>
	<g>
		<path fill="#A7D8F6" d="M236.5,358.7c-0.1,0-0.1,0-0.2,0c-0.4,0-9.9-1.2-12.7-7.4c-3-6.5,6.6-13.5,7-13.8c0.7-0.5,1.6-0.3,2.1,0.3
			c0.5,0.7,0.3,1.6-0.3,2.1c-2.2,1.6-7.6,6.6-6,10.2c2.1,4.7,10.2,5.6,10.3,5.6c0.8,0.1,1.4,0.8,1.3,1.7
			C237.9,358.2,237.3,358.7,236.5,358.7z"/>
	</g>
	<g>
		<path fill="#A7D8F6" d="M122.3,183.6c-0.8,0-1.5-0.7-1.5-1.5c0-17.8,13.6-43.5,26.3-61.5c11.8-16.7,2.7-28.9-7.8-38.7
			c-10.2-9.5-14.3-28.7-14.4-29.5c-0.2-0.8,0.4-1.6,1.2-1.8c0.8-0.2,1.6,0.4,1.8,1.2c0,0.2,4,19,13.6,27.9
			c10.7,10,21.4,23.9,8.2,42.6c-12.4,17.7-25.7,42.7-25.7,59.8C123.8,182.9,123.2,183.6,122.3,183.6z"/>
	</g>
	<g>
		<path fill="#A7D8F6" d="M113.7,151.6c-0.1,0-0.1,0-0.2,0c-0.8-0.1-1.4-0.8-1.3-1.6c0.3-3,2.4-6.4,5-10.8c3.8-6.4,9-15.1,11.7-27.4
			c4.4-19.6-4.8-29.2-4.9-29.3c-0.6-0.6-0.6-1.5,0-2.1c0.6-0.6,1.5-0.6,2.1,0c0.4,0.4,10.5,10.8,5.7,32.1
			c-2.9,12.7-8.2,21.7-12.1,28.2c-2.4,4.1-4.3,7.3-4.5,9.6C115.1,151,114.4,151.6,113.7,151.6z"/>
	</g>
	<g>
		<path fill="#A7D8F6" d="M112.2,421.6c-13.2,0-19.6-4.4-22.7-8.9c-6.5-9.3-2.1-23.1,3.5-32.1c10-15.9,14.1-44.9,10.4-73.7
			c-3.3-26,4.6-58.2,4.7-58.6c0.2-0.8,1-1.3,1.8-1.1c0.8,0.2,1.3,1,1.1,1.8c-0.1,0.3-7.9,32-4.6,57.4c3.8,29.5-0.5,59.2-10.9,75.7
			c-5.2,8.2-9.2,20.7-3.6,28.8c5.3,7.6,18.2,9.6,37.4,5.6c0.8-0.2,1.6,0.4,1.8,1.2c0.2,0.8-0.4,1.6-1.2,1.8
			C123,421,117.1,421.6,112.2,421.6z"/>
	</g>
	<g>
		<path fill="#A7D8F6" d="M71,421.6c-0.8,0-1.4-0.6-1.5-1.4c-0.1-0.8-1.3-20.6,5.5-32.8c6.5-11.8,15.1-45.5,12.5-61.7
			c-2.7-16.7-0.1-37.5,0-38.4c0.1-0.8,0.8-1.4,1.7-1.3c0.8,0.1,1.4,0.9,1.3,1.7c0,0.2-2.6,21.3,0,37.6c2.7,17.1-5.9,51.2-12.8,63.6
			c-6.4,11.5-5.2,31-5.1,31.2c0.1,0.8-0.6,1.5-1.4,1.6C71.1,421.6,71,421.6,71,421.6z"/>
	</g>
	<g>
		<path fill="#A7D8F6" d="M475,182.9c-0.7,0-1.3-0.4-1.4-1.1c-0.2-0.8,0.3-1.6,1-1.8c0.3-0.1,29.3-8.1,49.1-16.6
			c25.2-10.8,41.7-31.2,46.4-57.6c0.1-0.8,0.9-1.4,1.7-1.2c0.8,0.1,1.4,0.9,1.2,1.7c-5,27.4-22.1,48.6-48.2,59.8
			c-20.1,8.6-49.2,16.7-49.5,16.7C475.3,182.9,475.1,182.9,475,182.9z"/>
	</g>
	<g>
		<path fill="#A7D8F6" d="M505.7,186.2c-0.7,0-1.4-0.5-1.5-1.3c-0.1-0.8,0.4-1.6,1.2-1.7c40.2-6.5,49.5-22.4,49.6-22.6
			c0.4-0.7,1.3-1,2-0.6c0.7,0.4,1,1.3,0.6,2c-0.4,0.7-10.2,17.4-51.7,24.1C505.8,186.2,505.7,186.2,505.7,186.2z"/>
	</g>
</g>
<g id="Capa_8_copia_4">
	<g>
		<path fill="none" d="M152,220.7c0,0,0-0.1,0-0.1C151.9,220.6,151.9,220.6,152,220.7z"/>
	</g>
	<g>
		<g>
			<path fill="#FDCF84" d="M189.3,232.7c2.7,0,2.3-13.7,4.3-14c2-0.3,21,2.7,21.3,0.7c0.3-2,0.3-13-2-16.7
				c-2.3-3.7-5.7-7.3-5.7-10.3c0-3-1.3-9,1.3-8.7c2.7,0.3,19.7,1.7,21.3-1.7c0.7-1.3,3.7-5.3,2.7-6.3c-2.3,1-13.3-10.6-14.3-11.3
				c-2.4-1.8-20.5-7.3-23-7.3c-1.9,0-7.5-8.9-8.7-12.3c0,2.2-0.2,4-0.7,4.8c-1.5,2.5-4,8-5.5,12s-17.5,45-18.5,47.5s-10,10-10,11.5
				c0,0,0,0.1,0,0.1c0.9,0.5,10,2.8,13,3.4C168.3,224.7,186.7,232.7,189.3,232.7z"/>
		</g>
		<g>
			<path fill="#F08339" d="M189.3,233.7c-1.6,0-6.7-1.9-14.2-4.9c-4.4-1.7-8.9-3.5-10.3-3.8c-2.6-0.5-12.2-2.8-13.3-3.5l-0.5-0.3
				l0-0.7c0-1.1,1.3-2.4,4.9-6.1c2.1-2.1,4.7-4.7,5.2-5.8c0.8-2,16.9-43.3,18.5-47.5c1.6-4.2,4.1-9.7,5.6-12.2
				c0.1-0.2,0.5-1.1,0.5-4.3l0.1-5.8l1.9,5.5c1.2,3.5,6.4,11.3,7.8,11.6c0,0,0,0,0,0c2.8,0,21,5.6,23.5,7.5c0.2,0.2,0.7,0.7,1.9,1.7
				c6.4,6.3,10.3,9.5,11.5,9.5l0.6-0.3l0.4,0.5c1.3,1.3-0.2,3.8-1.7,6.2c-0.3,0.5-0.6,1-0.8,1.3c-0.6,1.2-2.5,2.8-11.9,2.8
				c-4.5,0-9.1-0.4-10.5-0.6c-0.2,0-0.2,0-0.2,0c-0.6,0.6-0.3,3.4-0.2,5c0.1,1,0.2,1.8,0.2,2.6c0,1.9,1.8,4.5,3.5,6.9
				c0.7,0.9,1.3,1.9,2,2.9c2.6,4.1,2.4,15.6,2.1,17.4c-0.2,1.3-1.8,1.5-4.3,1.5c-3.1,0-7.8-0.5-11.6-0.9c-2.8-0.3-5.2-0.5-6.1-0.5
				c-0.5,0.7-0.9,3.6-1.1,5.5C192.2,230,191.6,233.7,189.3,233.7z M153.3,220.1c2.4,0.7,8.9,2.4,11.8,3c1.5,0.3,5.8,2,10.6,3.9
				c5.1,2,12,4.7,13.4,4.8c0.7-0.6,1.3-4.6,1.6-6.8c0.7-4.7,1.1-6.9,2.6-7.2c0.7-0.1,3.3,0.1,6.8,0.5c3.8,0.4,8.4,0.9,11.4,0.9
				c1.4,0,2.1-0.1,2.3-0.2c0.3-2.7,0.1-12.5-1.9-15.6c-0.6-0.9-1.3-1.9-1.9-2.8c-2-2.8-3.9-5.5-3.9-8.1c0-0.7-0.1-1.5-0.2-2.4
				c-0.2-2.7-0.5-5.3,0.7-6.6c0.5-0.5,1.1-0.8,1.9-0.7c1.3,0.2,5.8,0.5,10.2,0.5c9,0,10-1.5,10.1-1.7c0.2-0.4,0.5-0.9,0.8-1.4
				c0.5-0.7,1.6-2.5,1.9-3.5c-2.3-0.5-6.5-4.2-12.4-10c-0.7-0.7-1.5-1.5-1.7-1.6c-2.2-1.7-20.1-7.1-22.4-7.1c-2.1,0-5.8-5.5-8-9.5
				c-0.2,0.8-0.3,1.2-0.5,1.5c-1.4,2.4-3.9,7.8-5.4,11.8c-1.6,4.2-17.7,45.5-18.5,47.5c-0.5,1.3-2.6,3.4-5.6,6.5
				C155.9,217.3,154.1,219.1,153.3,220.1z"/>
		</g>
	</g>
	<g>
		<g>
			<path fill="#FDCF84" d="M245.3,161.4c-2.1-0.2-9.9,13.1-12.7,14.3c1,1-2,5-2.7,6.3c-1.7,3.3-18.7,2-21.3,1.7
				c-2.7-0.3-1.3,5.7-1.3,8.7c0,3,3.3,6.7,5.7,10.3c2.3,3.7,2.3,14.7,2,16.7c2.7,1.7,13.3,10.3,15.7,10.3c2.3,0,4.7-12.3,7-12.7
				c2.3-0.3,21,2.7,22-0.3s6.3-12.7,6.3-12.7c2.3-0.3,15.7-6.3,17.7-8c4-3.4,0.3-9-4-11.3c-4.3-2.3,3.7-10.7,6.3-12.3
				c2.7-1.7-11.3-7.3-11.7-8.7c-0.3-1.3,2.3-4.3,2.7-6.7C275.3,157.8,248.6,161.7,245.3,161.4z"/>
		</g>
		<g>
			<path fill="#F08339" d="M230.7,230.7c-1.7,0-5.3-2.4-12.2-7.6c-1.8-1.3-3.3-2.4-4-2.9l-0.6-0.4l0.1-0.7c0.4-2.2,0.2-12.7-1.9-16
				c-0.6-0.9-1.3-1.9-1.9-2.8c-2-2.8-3.9-5.5-3.9-8.1c0-0.7-0.1-1.5-0.2-2.4c-0.2-2.7-0.5-5.3,0.7-6.6c0.5-0.5,1.1-0.8,1.9-0.7
				c1.3,0.2,5.8,0.5,10.2,0.5c9,0,10-1.5,10.1-1.7c0.2-0.4,0.5-0.9,0.8-1.4c0.5-0.9,1.9-3.1,1.9-3.8l-0.9-0.9l1.3-0.6
				c1.1-0.5,3.7-4,5.8-6.9c4-5.4,5.8-7.6,7.3-7.6l0.1,0c0.1,0,0.2,0,0.3,0c4.8,0,29.5-3.7,30.9-4.3l1.6-0.6l-0.2,1.7
				c-0.2,1.3-1,2.7-1.6,3.9c-0.4,0.7-1,1.8-1,2.2c0.6,0.5,2.6,1.6,4.1,2.4c5.3,2.9,7.9,4.4,7.9,6.1c0,0.6-0.3,1.1-0.8,1.4
				c-2.1,1.3-7.2,6.7-7.1,9.5c0,0.5,0.2,0.9,0.7,1.1c2.8,1.5,5.9,4.6,6.2,8.1c0.2,1.9-0.5,3.6-2.1,4.9c-2,1.7-14.1,7.2-17.6,8.1
				c-1,1.8-5.2,9.6-6,12.1c-0.5,1.4-2.5,2-6.8,2c-3.4,0-7.5-0.4-10.8-0.7c-2.5-0.2-4.6-0.4-5.2-0.3c-0.7,0.3-1.9,3.7-2.7,5.7
				C233.5,228.2,232.5,230.7,230.7,230.7z M216.1,218.9c0.9,0.6,2.1,1.5,3.6,2.6c3.1,2.3,9.4,7,10.9,7.2c0.7-0.4,1.9-3.7,2.7-5.7
				c1.6-4.3,2.6-6.7,4.2-7c0.7-0.1,2.8,0.1,5.7,0.3c3.3,0.3,7.4,0.7,10.6,0.7c4.3,0,4.9-0.7,4.9-0.7c1-3,6.2-12.4,6.4-12.8l0.2-0.4
				l0.5-0.1c2.2-0.3,15.4-6.3,17.2-7.8c1-0.9,1.5-1.9,1.4-3.2c-0.2-2.3-2.4-5-5.2-6.5c-1.1-0.6-1.7-1.6-1.8-2.8
				c-0.1-3.8,5.5-9.4,7.8-11c-0.9-1-4.6-3.1-6.7-4.2c-3.9-2.1-4.9-2.7-5.1-3.6c-0.3-1.1,0.4-2.3,1.2-3.8c0.3-0.6,0.6-1.2,0.9-1.7
				c-6.4,1.3-26.2,4-29.8,4c-0.1,0-0.3,0-0.4,0c-1,0.4-3.8,4.2-5.7,6.8c-2.6,3.5-4.4,5.9-5.8,7c0.1,1.4-1.1,3.3-2.2,5.1
				c-0.3,0.5-0.6,1-0.8,1.3c-0.6,1.2-2.5,2.8-11.9,2.8c-4.5,0-9.1-0.4-10.5-0.6c-0.2,0-0.2,0-0.2,0c-0.6,0.6-0.3,3.4-0.2,5
				c0.1,1,0.2,1.9,0.2,2.6c0,1.9,1.8,4.5,3.5,6.9c0.7,0.9,1.3,1.9,2,2.9C216.2,205.9,216.3,215.9,216.1,218.9z"/>
		</g>
	</g>
	<g>
		<path fill="none" d="M190,232.4c-1.1,0-2-0.1-2.8-0.1c1,0.3,1.7,0.5,2.1,0.5C189.6,232.7,189.8,232.6,190,232.4z"/>
	</g>
	<g>
		<g>
			<path fill="#FDCF84" d="M313.5,196.1c-3-1,10.5-15.5,12.5-16.5c1.1-0.6,7.7-3.1,13.8-5.2c-9.2-2-24.4-5.9-25.8-6.9
				c-2-1.3,8-20.7,10.3-24.3c2-3.1-29.2-2.6-38.8-3c-3.4,7.5-7.6,16.6-8.5,17c-0.3,2.3-3,5.3-2.7,6.7c0.3,1.3,14.3,7,11.7,8.7
				c-2.7,1.7-10.7,10-6.3,12.3c4.3,2.3,8,8,4,11.3c-2,1.7-15.3,7.7-17.7,8c0,0-5.3,9.7-6.3,12.7s-19.7,0-22,0.3
				c-2.3,0.3-4.7,12.7-7,12.7c-2.3,0-13-8.7-15.7-10.3c-0.3,2-19.3-1-21.3-0.7c-1.8,0.3-1.7,11.5-3.6,13.6c3.4,0.1,7.6,0.4,7.6,1.4
				c0,1.7-0.7,2.7,4.3,4.7c1.7,0.7,14.7,5.9,20,8c1.3,0.5,4.8,8.1,6.7,12.6c1.1-1.5,3.3-2.3,4.8-1.5c2,1,10,6.5,11.5,6.5
				s6.5-1,7.5-2.5s10.5-13.5,12.5-15.5s9,2,11.5,2.5s24.5,1.5,28,0.5s19.5-12,23-15.5s5-7.5,3-8.5s-6-2-4.5-5s7-3.5,7-3.5
				c0.5-1.5-4-12-5-14C327,200.6,316.5,197.1,313.5,196.1z"/>
		</g>
		<g>
			<path fill="#F08339" d="M245,265.1c-1.1,0-3.4-1.3-8.4-4.5c-1.5-0.9-2.9-1.8-3.6-2.2c-1-0.5-2.7,0.1-3.6,1.2l-1.1,1.4l-0.7-1.7
				c-2.4-5.8-5.3-11.5-6.2-12l-20-8c-4.4-1.8-5.1-3-5-5.1c0-0.1,0-0.1,0-0.2c-0.5-0.3-2.2-0.6-6.7-0.7l-2.1-0.1l1.4-1.6
				c0.7-0.8,1.2-4.3,1.6-6.8c0.7-4.7,1.1-6.9,2.6-7.2c0.7-0.1,3.3,0.1,6.8,0.5c3.8,0.4,8.4,0.9,11.4,0.9c1.4,0,2.1-0.1,2.3-0.2
				l0.2-1.1l1.3,0.8c0.8,0.5,2.3,1.6,4.2,3c3.1,2.3,9.4,7,10.9,7.2c0.7-0.4,1.9-3.7,2.7-5.7c1.6-4.3,2.6-6.7,4.2-7
				c0.7-0.1,2.8,0.1,5.7,0.3c3.3,0.3,7.4,0.7,10.6,0.7c4.3,0,4.9-0.7,4.9-0.7c1-3,6.2-12.4,6.4-12.8l0.2-0.4l0.5-0.1
				c2.2-0.3,15.4-6.3,17.2-7.8c1-0.9,1.5-1.9,1.4-3.2c-0.2-2.3-2.4-5-5.2-6.5c-1.1-0.6-1.7-1.6-1.8-2.8c-0.1-3.8,5.5-9.4,7.8-11
				c-0.9-1-4.6-3.1-6.7-4.2c-3.9-2.1-4.9-2.7-5.1-3.6c-0.3-1.1,0.4-2.3,1.2-3.8c0.6-1.1,1.3-2.3,1.4-3.3l0.1-0.6l0.4-0.2
				c0.7-0.7,3.1-5.4,8.1-16.5l0.3-0.6l0.7,0c2.1,0.1,5.3,0.1,9,0.2c23.1,0.3,29.7,0.9,30.7,2.9c0.3,0.5,0.2,1-0.1,1.5
				c-2.8,4.4-10.7,20.4-10.5,23.1c2,1,15.5,4.6,25.3,6.7l3.5,0.7l-3.4,1.2c-6.4,2.3-12.7,4.7-13.7,5.2c-1.9,0.9-12,12.1-12.4,14.7
				c12.1,4,14.3,5.8,14.8,6.9c0.1,0.1,5.8,12.5,5.1,14.8l-0.2,0.6l-0.7,0.1c-1.4,0.1-5.2,0.9-6.2,3c-0.3,0.7-0.2,1-0.2,1.1
				c0.3,0.8,1.9,1.5,3.1,2c0.4,0.2,0.8,0.4,1.2,0.5c0.8,0.4,1.3,1.1,1.4,2c0.3,2.1-1.3,5.3-4.1,8.1c-3.7,3.7-19.7,14.7-23.4,15.8
				c-0.4,0.1-1.6,0.5-7.7,0.5c0,0,0,0,0,0c-7.6,0-18.8-0.6-20.7-0.9c-0.8-0.2-2-0.6-3.4-1.2c-2.1-0.8-4.6-1.9-6.3-1.9
				c-0.3,0-0.8,0-1,0.3c-1.9,1.9-11.5,14-12.4,15.3C252,264.2,246.3,265.1,245,265.1z M232.1,256.3c0.7,0,1.3,0.1,1.8,0.4
				c0.7,0.4,2.1,1.2,3.7,2.2c2.2,1.4,6.4,4,7.3,4.1c1.6,0,6-1.1,6.7-2.1c1-1.5,10.6-13.6,12.6-15.7c0.6-0.6,1.4-0.8,2.4-0.8
				c2,0,4.7,1.1,7,2c1.2,0.5,2.3,0.9,3,1.1c1.6,0.3,12.5,0.9,20.3,0.9c5.1,0,6.7-0.2,7.2-0.4c3.3-1,19.2-11.9,22.6-15.2
				c2.6-2.6,3.8-5.2,3.6-6.4c-0.1-0.3-0.2-0.4-0.3-0.5c-0.3-0.2-0.7-0.3-1.1-0.5c-1.6-0.7-3.5-1.5-4.1-3.2c-0.3-0.8-0.2-1.7,0.3-2.7
				c1.3-2.7,5.1-3.6,6.9-3.9c-0.5-2.4-3.6-10.1-4.9-12.7c-0.2-0.4-1.8-2-13.9-6c-0.6-0.2-1.1-0.8-1.1-1.5
				c-0.3-3.6,11.7-16,13.5-16.9c0.9-0.5,5.6-2.3,10.7-4.1c-8.8-2-21.3-5.3-22.8-6.3c-0.8-0.5-2-1.3,3.2-12.5
				c2.3-4.9,5.2-10.4,6.6-12.7c-2.9-1.4-19.6-1.6-28.7-1.7c-3.3,0-6.2-0.1-8.4-0.2c-5.5,12.4-7.4,15.6-8.2,16.5
				c-0.3,1.2-1,2.5-1.6,3.6c-0.4,0.7-1,1.8-1,2.2c0.6,0.5,2.6,1.6,4.1,2.4c5.3,2.9,7.9,4.4,7.9,6.1c0,0.6-0.3,1.1-0.8,1.4
				c-2.1,1.3-7.2,6.7-7.1,9.5c0,0.5,0.2,0.9,0.7,1.1c2.8,1.5,5.9,4.6,6.2,8.1c0.2,1.9-0.5,3.6-2.1,4.9c-2,1.7-14.1,7.2-17.6,8.1
				c-1,1.8-5.2,9.6-6,12.1c-0.5,1.4-2.5,2-6.8,2c-3.4,0-7.5-0.4-10.8-0.7c-2.5-0.2-4.6-0.4-5.2-0.3c-0.7,0.3-1.9,3.7-2.7,5.7
				c-1.7,4.5-2.7,7-4.5,7c-1.7,0-5.3-2.4-12.2-7.6c-1.4-1-2.6-1.9-3.4-2.5c-0.7,0.3-1.9,0.4-3.4,0.4c-3.1,0-7.8-0.5-11.6-0.9
				c-2.8-0.3-5.2-0.5-6.1-0.5c-0.5,0.7-0.9,3.6-1.1,5.5c-0.4,2.7-0.7,4.8-1.2,6.2c4.8,0.2,7,0.7,7,2.4c0,0.2,0,0.4,0,0.6
				c-0.1,1-0.1,1.6,3.7,3.1l20,8c1.8,0.7,5.2,8.3,6.7,11.8C229.9,256.6,231,256.3,232.1,256.3z"/>
		</g>
	</g>
	<g>
		<g>
			<path fill="#FDCF84" d="M222,246.5c-5.3-2.1-18.3-7.3-20-8c-5-2-4.3-3-4.3-4.7c0-1.1-4.2-1.3-7.6-1.4c-0.2,0.2-0.4,0.4-0.7,0.4
				c-0.4,0-1.1-0.2-2.1-0.5c-0.6,0-1-0.1-1.2-0.1c0.2,0,0.7,0.1,1.2,0.1c-5.6-1.7-19.4-7.6-22.2-8.2c-3-0.6-12.1-2.9-13-3.4
				c0.1,1.9,2.5,16.4,2.5,18.4c0,2-15,57-14.5,58.5s7.5,7,7.5,8.5s-1.5,29,0.5,30.5s11,2.5,11.5,4.5s-23,28.5-22,30.5
				s23,11.5,27,12.5s11.5,0.5,13.5,1s23,4.5,24.5,3s2-5,2-5s-26.5-12-28.5-14.5s-13.2-25.4-12.5-29.5c0.5-3,20.5-22,22-22.5
				s25-17.5,26.5-19s2-7.5,2-9s-11-9-10-12.5s3.5-10.5,8-10.5s10.5,4,12,5.5s4.5,6,7,4.5s4-5.5,3-7s-6.5-5.5-6-8
				c0.1-0.6,0.4-1.1,0.7-1.5C226.8,254.6,223.3,247,222,246.5z"/>
		</g>
		<g>
			<path fill="#F08339" d="M200.5,389.4c-5.8,0-21-2.9-22.8-3.4c-0.7-0.2-2.5-0.2-4.5-0.3c-2.9-0.1-6.6-0.1-9-0.7
				c-3-0.8-26.3-10.3-27.7-13c-0.7-1.4,1.2-4.1,11.8-17.5c4.2-5.3,9.4-11.7,10-13.3c-0.6-0.6-3.9-1.5-5.6-2
				c-2.4-0.6-4.4-1.2-5.4-1.9c-1.1-0.8-2-3.7-1-29.1c0-1.2,0.1-1.9,0.1-2.2c-0.2-0.6-2.4-2.7-3.8-4c-2.1-2.1-3.4-3.3-3.7-4.1
				c-0.3-0.9,0.8-5.6,8.5-35.3c2.9-11.1,5.9-22.5,5.9-23.6c0-1-0.8-6.1-1.4-10.2c-0.6-3.9-1.1-7.2-1.1-8.2l-0.1-1.9l1.6,1
				c0.8,0.4,9.3,2.6,12.7,3.3c1.5,0.3,5.8,2,10.6,3.9c4.4,1.7,9,3.5,11.7,4.3l0,0c1.1,0.3,1.5,0.4,1.7,0.4l0.3-0.3l0.5,0
				c5.9,0.2,8.6,0.6,8.6,2.4c0,0.2,0,0.4,0,0.6c-0.1,1-0.1,1.6,3.7,3.1l20,8c2.1,0.8,6.4,11.1,7.2,13.1l0.2,0.5l-0.3,0.5
				c-0.3,0.4-0.4,0.7-0.5,1.1c-0.2,1.2,2.4,3.8,3.9,5.2c0.9,0.9,1.6,1.5,2,2.1c0.5,0.8,0.6,1.8,0.3,3.1c-0.4,1.8-1.7,4.1-3.6,5.3
				c-0.5,0.3-1,0.4-1.6,0.4h0c-2.2,0-4.2-2.3-5.7-4c-0.4-0.4-0.7-0.8-0.9-1.1c-1.6-1.6-7.3-5.2-11.3-5.2c-3.8,0-6.2,6.8-7,9.8
				c-0.5,1.6,4,5.7,6.4,7.9c2.7,2.5,3.7,3.4,3.7,4.3c0,0.1-0.2,7.6-2.3,9.7c-1.6,1.6-25.1,18.6-26.9,19.2c-1.9,1-20.8,19-21.3,21.7
				c-0.6,3.5,10,25.9,12.3,28.7c1.3,1.7,18,9.6,28.1,14.2l0.7,0.3l-0.1,0.7c-0.1,0.4-0.6,3.9-2.3,5.6
				C202.8,389.2,202,389.4,200.5,389.4z M138.5,371.3c2.1,2,21.9,10.8,26.2,11.8c2.2,0.6,5.8,0.6,8.6,0.7c2.2,0,4,0.1,4.9,0.3
				c1.7,0.4,16.8,3.3,22.3,3.3c0.9,0,1.2-0.1,1.3-0.1c0.8-0.8,1.3-2.5,1.5-3.6c-5.7-2.6-26.2-12-28.2-14.5
				c-1.8-2.3-13.5-25.7-12.7-30.3c0.6-3.5,21.2-22.8,22.7-23.3c1.5-0.6,24.5-17.1,26.1-18.8c1-1,1.7-6.1,1.7-8.2
				c-0.3-0.5-1.8-1.9-3-3c-4.4-4-7.7-7.3-7-9.9c1.5-5.1,4.2-11.2,9-11.2c4.9,0,11.1,4.1,12.7,5.8c0.3,0.3,0.7,0.7,1,1.2
				c1.1,1.3,2.9,3.3,4.2,3.3l0,0c0.2,0,0.4-0.1,0.6-0.2c1.4-0.9,2.4-2.7,2.7-4c0.2-0.8,0.1-1.4,0-1.6c-0.2-0.4-0.9-1-1.7-1.7
				c-2.2-2.1-4.9-4.7-4.5-7c0.1-0.5,0.3-1,0.5-1.4c-2.3-5.7-5.1-11-6-11.6l-20-8c-4.4-1.8-5.1-3-5-5.1c0-0.1,0-0.1,0-0.2
				c-0.3-0.2-1-0.3-2.5-0.5l-3.8-0.2c-0.4,0.2-0.7,0.3-1,0.3c-0.5,0-1.2-0.1-2.3-0.5c-0.6,0-1-0.1-1.3-0.1l0.1-0.3
				c-2.8-0.9-6.8-2.5-10.8-4.1c-4.4-1.7-8.9-3.5-10.3-3.8c-2-0.4-8.5-1.9-11.6-2.9c0.2,1.6,0.6,4,0.9,6.4c0.8,5.6,1.4,9.4,1.4,10.5
				c0,0.9-1.7,7.7-6,24c-3.5,13.5-8.3,32-8.5,34.2c0.3,0.6,2,2.2,3.1,3.3c3.1,2.9,4.4,4.3,4.4,5.5c0,0.2,0,1-0.1,2.2
				c-0.9,21.8-0.2,26.6,0.2,27.5c0.7,0.5,2.8,1,4.7,1.5c4.2,1.1,6.7,1.8,7.1,3.5c0.3,1.2-1.3,3.5-10.5,15
				C145.4,361.6,139.2,369.4,138.5,371.3z"/>
		</g>
	</g>
	<g>
		<g>
			<path fill="#FDCF84" d="M377.5,141.1c-2.5,0.5-7.5,11.5-9,11.5s-17-1-17-3s15-16,18-18.5s0-8.5-1.5-9s-28-7-30.5-7.5
				s-26.5-17-29.5-17c-1.3,0-10.1,0-20.2,0.1c1.4,3.1-1.7,16.9-2.4,19.1c-0.7,2-17.8,10.5-16.3,11c1.5,0.5,21.5,0.7,20.7,2.7
				c-0.5,1.2-2.2,5.2-4.2,9.7c9.7,0.4,40.8-0.1,38.8,3c-2.3,3.7-12.3,23-10.3,24.3c1.5,1,16.6,5,25.8,6.9c4.9-1.7,9.6-3.3,10.7-3.3
				c2.5,0,21.5,0.5,23-1s14.5-21.5,14.5-24.5S380,140.6,377.5,141.1z"/>
		</g>
		<g>
			<path fill="#F08339" d="M339.9,175.4l-0.3-0.1c-8.6-1.8-24.4-5.9-26.2-7.1c-0.8-0.5-2-1.3,3.2-12.5c2.3-4.9,5.2-10.4,6.6-12.7
				c-2.9-1.4-19.6-1.6-28.7-1.7c-3.7,0-6.9-0.1-9-0.2L284,141l0.6-1.3c1.7-3.8,3.2-7.4,3.9-9.1c-2-0.7-10-1.2-13.9-1.4
				c-3.9-0.2-5.3-0.3-5.9-0.5c-0.4-0.1-0.7-0.5-0.8-0.9c-0.1-1,0.6-1.5,7.4-5.5c3.2-1.9,8.5-5,9.1-5.9c0.9-2.6,3.6-15.7,2.4-18.3
				l-0.6-1.4l1.5,0c9.1-0.1,17.2-0.1,20.3-0.1c1.9,0,8.1,3.9,18.3,10.2c4.9,3.1,10.5,6.6,11.4,6.8c2.8,0.6,29.1,7,30.6,7.5
				c1.5,0.5,2.9,3.2,3.3,5.4c0.4,2.3-0.1,4.1-1.5,5.3c-3.5,2.9-16.1,14.8-17.5,17.6c2,1.2,12.9,2.1,15.7,2.2c0.6-0.5,1.9-2.7,3-4.3
				c2.6-4.2,4.3-6.8,6-7.2c0.3-0.1,0.7-0.1,1.1-0.1c3.2,0,10.6,1.9,10.6,5.6c0,3.6-13.4,23.8-14.8,25.2c-0.5,0.5-1.4,1.4-15,1.4
				c0,0,0,0,0,0c-2.8,0-5.3,0-7-0.1c-0.8,0-1.4,0-1.8,0c-0.2,0-1.8,0.2-10.4,3.2L339.9,175.4z M314.7,166.7c2,0.9,15.3,4.5,25,6.6
				c9.1-3.2,10.3-3.2,10.8-3.2c0.3,0,1,0,1.8,0c1.7,0,4.2,0.1,7,0.1c11.4,0,13.3-0.6,13.6-0.8c1.9-1.9,14.2-21.4,14.2-23.7
				c0-1.6-5.3-3.6-8.6-3.6c-0.4,0-0.6,0-0.7,0.1c-0.9,0.2-3.4,4.1-4.7,6.3c-2.5,4-3.3,5.2-4.5,5.2c-0.9,0-5.2-0.3-9.2-0.8
				c-7.4-0.9-8.8-1.9-8.8-3.2c0-3,18.2-19.1,18.4-19.3c1-0.8,1-2.1,0.9-3.1c-0.3-2.1-1.6-4-2.1-4.2c-1.4-0.5-27.8-6.9-30.4-7.5
				c-1.1-0.2-4.6-2.3-12.1-7.1c-6.2-3.9-15.7-9.8-17.2-9.9c-2.3,0-10.1,0-19,0.1c0.6,5-2.2,16.9-2.7,18.4c-0.4,1.2-2.8,2.8-9.9,6.9
				c-1.7,1-3.7,2.2-5.1,3c1,0.1,2.2,0.1,3.4,0.2c11.6,0.6,15,1.2,15.8,2.4c0.2,0.4,0.3,0.8,0.1,1.2c-0.5,1.2-1.9,4.5-3.6,8.3
				c2,0.1,4.6,0.1,7.5,0.1c23.1,0.3,29.7,0.9,30.7,2.9c0.3,0.5,0.2,1-0.1,1.5C322.4,148,314.4,164,314.7,166.7z"/>
		</g>
	</g>
	<g>
		<g>
			<path fill="#FDCF84" d="M195.3,157.1c2.5,0,20.6,5.5,23,7.3c1,0.8,12.1,12.4,14.3,11.3c2.8-1.3,10.6-14.5,12.7-14.3
				c3.3,0.3,29.9-3.6,31.7-4.3c1.5-0.6,11.3-23.3,12.7-26.7c0.8-2-19.2-2.2-20.7-2.7c-1.5-0.5,15.7-9,16.3-11
				c0.7-2.1,3.8-16,2.4-19.1c-14.1,0.2-30.6,0.5-31.8,1.4c-2,1.5-3,7-5,7s-2.5-5-4-5.5s-23.5-4.5-25.5-4c-3.5,0.9-9.5,9.5-10.5,13
				s0,10-2.5,10.5s-22.5,8-22.5,10.5c0,1.7,0.7,9.1,0.7,14.2C187.8,148.2,193.4,157.1,195.3,157.1z"/>
		</g>
		<g>
			<path fill="#F08339" d="M232.3,176.8C232.3,176.8,232.3,176.8,232.3,176.8c-2.2,0-6.6-3.8-12.9-10c-0.7-0.7-1.5-1.5-1.7-1.6
				c-2.2-1.7-20.1-7.1-22.4-7.1c-2.9,0-8.7-10.3-9.6-13l-0.1-0.2l0-0.2c0-3.3-0.2-7.5-0.5-10.6c-0.1-1.6-0.2-3-0.2-3.6
				c0-0.8,0-2.3,10.9-6.9c5.2-2.2,11-4.3,12.4-4.6c0.8-0.2,1-3.1,1.1-5c0.1-1.7,0.2-3.4,0.6-4.8c1-3.7,7.2-12.7,11.2-13.7
				c0.2,0,0.5-0.1,0.8-0.1c3.9,0,23.6,3.5,25.3,4.1c1.1,0.4,1.6,1.7,2.2,3.1c0.3,0.8,1,2.4,1.4,2.4c0.5,0,1.4-1.9,1.8-2.9
				c0.7-1.5,1.5-3.1,2.6-3.9c0.5-0.4,1.7-1.3,32.3-1.6l0.6,0l0.3,0.6c1.7,3.6-1.8,18.1-2.4,19.8c-0.4,1.2-2.8,2.8-9.9,6.9
				c-1.7,1-3.7,2.2-5.1,3c1,0.1,2.2,0.1,3.4,0.2c11.6,0.6,15,1.2,15.8,2.4c0.2,0.4,0.3,0.8,0.1,1.2c-0.1,0.3-11,26.3-13.2,27.2
				c-2,0.9-27.5,4.4-31.7,4.4c-0.1,0-0.3,0-0.4,0c-1,0.4-3.8,4.2-5.7,6.8c-3.1,4.2-5.1,6.8-6.6,7.5
				C232.9,176.7,232.6,176.8,232.3,176.8z M195.4,156.1c2.8,0,21,5.6,23.5,7.5c0.2,0.2,0.7,0.7,1.9,1.7c6.4,6.3,10.3,9.5,11.5,9.5v1
				l0-1c1-0.5,3.6-4,5.7-6.8c4-5.4,5.8-7.6,7.3-7.6l0.1,0c0.1,0,0.2,0,0.3,0c4.7,0,28.6-3.6,30.8-4.2c1.6-1.8,9.9-20.4,12-25.6
				c-2-0.7-10-1.2-13.9-1.4c-3.9-0.2-5.3-0.3-5.9-0.5c-0.4-0.1-0.7-0.5-0.8-0.9c-0.1-1,0.6-1.5,7.4-5.5c3.2-1.9,8.5-5,9.1-5.9
				c0.8-2.5,3.3-14.2,2.6-17.7c-25.7,0.3-29.9,1-30.5,1.2c-0.6,0.5-1.3,1.9-1.9,3.1c-1,2.1-1.9,4-3.6,4c-1.8,0-2.6-1.9-3.3-3.6
				c-0.3-0.7-0.8-1.8-1-2c-1.2-0.4-20.7-4-24.6-4c-0.1,0-0.2,0-0.3,0c-3,0.7-8.8,8.9-9.8,12.3c-0.3,1.2-0.4,2.8-0.5,4.3
				c-0.2,3.3-0.4,6.4-2.7,6.9c-2.9,0.6-20.4,7.5-21.7,9.6c0,0.6,0.1,1.8,0.2,3.4c0.2,3.1,0.5,7.2,0.5,10.6
				C189,148.2,194,155.7,195.4,156.1C195.4,156.1,195.4,156.1,195.4,156.1z"/>
		</g>
	</g>
	<g>
		<g>
			<path fill="#83671E" d="M231.6,127.6h0.8l-1.6,7.5h-1.4l-0.8-6c0-0.3-0.1-0.7,0-1.1h0c-0.1,0.4-0.2,0.8-0.2,1.1l-1.3,6h-0.8
				l1.6-7.5h1.3l0.8,6.1c0,0.2,0.1,0.5,0.1,0.8h0c0-0.3,0.1-0.6,0.2-0.8L231.6,127.6z"/>
		</g>
		<g>
			<path fill="#83671E" d="M236.3,127.4c2.2,0,2,2,1.6,3.7c-0.4,2.1-1.1,4.1-3.3,4.1c-2.2,0-2-2-1.6-4.1
				C233.4,129.4,234.1,127.4,236.3,127.4z M236.1,128.2c-1.3,0-1.9,1.3-2.2,3c-0.4,2.2-0.5,3.3,0.9,3.3c1.4,0,1.8-1.1,2.3-3.3
				C237.5,129.5,237.4,128.2,236.1,128.2z"/>
		</g>
		<g>
			<path fill="#83671E" d="M241.6,127.6h1.1l0.5,7.5h-0.9l-0.1-2.2h-2.4l-1,2.2h-0.9L241.6,127.6z M242,128.2L242,128.2l-1.9,4h2
				L242,128.2z"/>
		</g>
	</g>
	<g>
		<g>
			<path fill="#83671E" d="M180.8,191.3c0.2-0.9,0-1.6-1-1.6c-1.4,0-1.9,2-2.1,3c-0.3,1-0.8,3.3,0.8,3.3c1,0,1.4-0.8,1.6-1.6
				c0-0.2,0.1-0.3,0.2-0.5h0.8c-0.1,0.1-0.1,0.3-0.1,0.5c-0.2,0.6-0.3,1.1-0.8,1.6c-0.5,0.5-1.1,0.8-1.8,0.8c-2.3,0-1.9-2.2-1.5-4
				c0.4-1.7,1.1-3.8,3.2-3.8c1.4,0,1.9,1.1,1.6,2.4H180.8z"/>
		</g>
		<g>
			<path fill="#83671E" d="M183.5,189.1h0.8l-1.1,5.4c-0.1,0.6-0.2,1.5,1.1,1.5c1.3,0,1.6-0.9,1.7-1.5l1.1-5.4h0.8l-1.2,5.7
				c-0.3,1.3-1.3,2-2.7,2c-1.4,0-2.1-0.6-1.8-2L183.5,189.1z"/>
		</g>
		<g>
			<path fill="#83671E" d="M190.7,192.8l2.6-3.8h0.9l-3.2,4.6l-0.6,2.9h-0.8l0.6-2.9l-1.3-4.6h0.9L190.7,192.8z"/>
		</g>
		<g>
			<path fill="#83671E" d="M197.4,188.9c2.2,0,2,2,1.6,3.7c-0.4,2.1-1.1,4.1-3.3,4.1c-2.2,0-2-2-1.6-4.1
				C194.5,190.9,195.2,188.9,197.4,188.9z M197.2,189.7c-1.3,0-1.9,1.3-2.2,3c-0.4,2.2-0.5,3.3,0.9,3.3c1.4,0,1.8-1.1,2.3-3.3
				C198.6,191,198.6,189.7,197.2,189.7z"/>
		</g>
	</g>
	<g>
		<g>
			<path fill="#83671E" d="M280.9,218.1l1.6-7.5h2c0.6,0,1.3,0.1,1.6,0.5c0.4,0.4,0.4,1,0.3,1.6c-0.2,0.8-0.6,1.6-1.5,2
				c-0.6,0.2-1.4,0.2-2,0.2h-0.5l-0.7,3.2H280.9z M282.5,214.1h0.8c1.1,0,1.9-0.2,2.1-1.5c0.3-1.2-0.5-1.4-1.5-1.4h-0.9L282.5,214.1
				z"/>
		</g>
		<g>
			<path fill="#83671E" d="M289,210.6h1.1l0.5,7.5h-0.9l-0.1-2.2h-2.4l-1,2.2h-0.9L289,210.6z M289.4,211.2L289.4,211.2l-1.9,4h2
				L289.4,211.2z"/>
		</g>
		<g>
			<path fill="#83671E" d="M297.9,210.6h1.5l-1.6,7.5h-0.8l1.3-6.2c0.1-0.3,0.2-0.6,0.2-0.9h0c-0.2,0.4-0.3,0.7-0.4,1l-2.9,6.1h-1
				l-0.3-6.2c0-0.3,0-0.5,0-0.9h0c-0.1,0.3-0.1,0.6-0.2,1l-1.3,6.2h-0.8l1.6-7.5h1.5l0.2,5.8c0,0.3,0,0.6-0.1,1.1h0
				c0.1-0.4,0.3-0.7,0.4-1.1L297.9,210.6z"/>
		</g>
		<g>
			<path fill="#83671E" d="M299.4,218.1l1.6-7.5h2c0.6,0,1.3,0.1,1.6,0.5c0.4,0.4,0.4,1,0.3,1.6c-0.2,0.8-0.6,1.6-1.5,2
				c-0.6,0.2-1.4,0.2-2,0.2h-0.5l-0.7,3.2H299.4z M301.1,214.1h0.8c1.1,0,1.9-0.2,2.1-1.5c0.3-1.2-0.5-1.4-1.5-1.4h-0.9L301.1,214.1
				z"/>
		</g>
		<g>
			<path fill="#83671E" d="M307.6,210.6h1.1l0.5,7.5h-0.9l-0.1-2.2h-2.4l-1,2.2h-0.9L307.6,210.6z M308,211.2L308,211.2l-1.9,4h2
				L308,211.2z"/>
		</g>
	</g>
	<g>
		<g>
			<path fill="#83671E" d="M153.4,275.6l1.6-7.5h2c0.6,0,1.3,0.1,1.6,0.5c0.4,0.4,0.4,1,0.3,1.6c-0.2,0.8-0.6,1.6-1.5,2
				c-0.6,0.2-1.4,0.2-2,0.2h-0.5l-0.7,3.2H153.4z M155,271.6h0.8c1.1,0,1.9-0.2,2.1-1.5c0.3-1.2-0.5-1.4-1.5-1.4h-0.9L155,271.6z"/>
		</g>
		<g>
			<path fill="#83671E" d="M161.5,268.1h1.1l0.5,7.5h-0.9l-0.1-2.2h-2.4l-1,2.2h-0.9L161.5,268.1z M161.9,268.7L161.9,268.7l-1.9,4
				h2L161.9,268.7z"/>
		</g>
		<g>
			<path fill="#83671E" d="M164.4,268.1h4.7l-0.2,0.8H167l-1.4,6.7h-0.8l1.4-6.7h-1.9L164.4,268.1z"/>
		</g>
		<g>
			<path fill="#83671E" d="M171,268.1h1.1l0.5,7.5h-0.9l-0.1-2.2h-2.4l-1,2.2h-0.9L171,268.1z M171.4,268.7L171.4,268.7l-1.9,4h2
				L171.4,268.7z"/>
		</g>
		<g>
			<path fill="#83671E" d="M178,275.6h-0.6l0.3-1.2h0c-0.4,0.8-1.2,1.3-2,1.3c-2.2,0-1.9-2.2-1.5-4c0.4-1.7,1.1-3.8,3.3-3.8
				c1.4,0,2,0.9,1.7,2.3h-0.8c0.2-0.9-0.1-1.6-1-1.6c-1.6,0-2.1,1.8-2.3,3.1c-0.2,1.1-0.7,3.1,0.7,3.2c1.5,0.1,2-1.3,2.2-2.5h-1.7
				l0.2-0.7h2.5L178,275.6z"/>
		</g>
		<g>
			<path fill="#83671E" d="M183.5,267.9c2.2,0,2,2,1.6,3.7c-0.4,2.1-1.1,4.1-3.3,4.1c-2.2,0-2-2-1.6-4.1
				C180.6,269.9,181.3,267.9,183.5,267.9z M183.3,268.7c-1.3,0-1.9,1.3-2.2,3c-0.4,2.2-0.5,3.3,0.9,3.3c1.4,0,1.8-1.1,2.3-3.3
				C184.7,270,184.6,268.7,183.3,268.7z"/>
		</g>
		<g>
			<path fill="#83671E" d="M191,268.1h0.8l-1.6,7.5h-1.4l-0.8-6c0-0.3-0.1-0.7,0-1.1h0c-0.1,0.4-0.2,0.8-0.2,1.1l-1.3,6h-0.8
				l1.6-7.5h1.3l0.8,6.1c0,0.2,0.1,0.5,0.1,0.8h0c0-0.3,0.1-0.6,0.2-0.8L191,268.1z"/>
		</g>
		<g>
			<path fill="#83671E" d="M192,275.6l1.6-7.5h0.8l-1.6,7.5H192z"/>
		</g>
		<g>
			<path fill="#83671E" d="M197.7,268.1h1.1l0.5,7.5h-0.9l-0.1-2.2h-2.4l-1,2.2h-0.9L197.7,268.1z M198.1,268.7L198.1,268.7l-1.9,4
				h2L198.1,268.7z"/>
		</g>
	</g>
	<g>
		<g>
			<path fill="#83671E" d="M241.8,181c0.2-0.8-0.1-1.4-0.9-1.4c-1.2,0-1.5,0.8-1.6,1.3c-0.1,0.5,0,0.8,0.5,1
				c0.4,0.1,0.7,0.3,1.1,0.4c1.3,0.5,1.5,1,1.3,2c-0.3,1.4-1.4,2.2-2.8,2.2c-0.7,0-1.6-0.2-1.8-1.2c-0.1-0.4,0.1-1,0.1-1.4h0.8
				c-0.3,1.1-0.2,1.8,1,1.8c0.8,0,1.5-0.4,1.7-1.3c0.2-1.1-0.2-1.1-0.9-1.4c-0.4-0.2-1-0.4-1.3-0.6c-0.6-0.4-0.7-1-0.5-1.7
				c0.3-1.2,1.3-2,2.5-2c1.4,0,2.1,0.7,1.7,2.1H241.8z"/>
		</g>
		<g>
			<path fill="#83671E" d="M242.9,186.6l1.6-7.5h0.8l-1.6,7.5H242.9z"/>
		</g>
		<g>
			<path fill="#83671E" d="M245.3,186.6l1.6-7.5h3.7l-0.2,0.8h-2.9l-0.5,2.5h2.7l-0.2,0.7h-2.7l-0.6,2.8h2.9l-0.2,0.7H245.3z"/>
		</g>
		<g>
			<path fill="#83671E" d="M251,186.6h-0.8l1.6-7.5h1.9c1.6,0,2.5,0.4,2.1,2.1c-0.2,0.9-0.9,1.5-1.8,1.6v0c0.9,0.1,1.1,0.4,1,1.4
				c-0.1,0.6-0.1,1.1-0.2,1.7c0,0.1,0,0.5,0.2,0.5l0,0.2h-1c-0.1-0.5,0-1.4,0.1-1.9c0.2-0.7,0-1.4-1-1.4h-1.4L251,186.6z
				 M251.9,182.5h1.3c0.4,0,1.5-0.1,1.7-1.4c0.3-1.3-0.7-1.3-1.3-1.3h-1.2L251.9,182.5z"/>
		</g>
		<g>
			<path fill="#83671E" d="M256.9,186.6h-0.8l1.6-7.5h1.9c1.6,0,2.5,0.4,2.1,2.1c-0.2,0.9-0.9,1.5-1.8,1.6v0c0.9,0.1,1.1,0.4,1,1.4
				c-0.1,0.6-0.1,1.1-0.2,1.7c0,0.1,0,0.5,0.2,0.5l0,0.2h-1c-0.1-0.5,0-1.4,0.1-1.9c0.2-0.7,0-1.4-1-1.4h-1.4L256.9,186.6z
				 M257.8,182.5h1.3c0.4,0,1.5-0.1,1.7-1.4c0.3-1.3-0.7-1.3-1.3-1.3h-1.2L257.8,182.5z"/>
		</g>
		<g>
			<path fill="#83671E" d="M265,179.1h1.1l0.5,7.5h-0.9l-0.1-2.2h-2.4l-1,2.2h-0.9L265,179.1z M265.4,179.7L265.4,179.7l-1.9,4h2
				L265.4,179.7z"/>
		</g>
		<g>
			<path fill="#83671E" d="M271.7,181c0.2-0.8-0.1-1.4-0.9-1.4c-1.2,0-1.5,0.8-1.6,1.3c-0.1,0.5,0,0.8,0.5,1
				c0.4,0.1,0.7,0.3,1.1,0.4c1.3,0.5,1.5,1,1.3,2c-0.3,1.4-1.4,2.2-2.8,2.2c-0.7,0-1.6-0.2-1.8-1.2c-0.1-0.4,0.1-1,0.1-1.4h0.8
				c-0.3,1.1-0.2,1.8,1,1.8c0.8,0,1.5-0.4,1.7-1.3c0.2-1.1-0.2-1.1-0.9-1.4c-0.4-0.2-1-0.4-1.3-0.6c-0.6-0.4-0.7-1-0.5-1.7
				c0.3-1.2,1.3-2,2.5-2c1.4,0,2.1,0.7,1.7,2.1H271.7z"/>
		</g>
		<g>
			<path fill="#83671E" d="M221.4,196.6l1.6-7.5h2c0.6,0,1.3,0.1,1.6,0.5c0.4,0.4,0.4,1,0.3,1.6c-0.2,0.8-0.6,1.6-1.5,2
				c-0.6,0.2-1.4,0.2-2,0.2h-0.5l-0.7,3.2H221.4z M223,192.6h0.8c1.1,0,1.9-0.2,2.1-1.5c0.3-1.2-0.5-1.4-1.5-1.4h-0.9L223,192.6z"/>
		</g>
		<g>
			<path fill="#83671E" d="M229.3,189.1h1.1l0.5,7.5H230l-0.1-2.2h-2.4l-1,2.2h-0.9L229.3,189.1z M229.7,189.7L229.7,189.7l-1.9,4h2
				L229.7,189.7z"/>
		</g>
		<g>
			<path fill="#83671E" d="M238,189.1h1.5l-1.6,7.5H237l1.3-6.2c0.1-0.3,0.2-0.6,0.2-0.9h0c-0.2,0.4-0.3,0.7-0.4,1l-2.9,6.1h-1
				l-0.3-6.2c0-0.3,0-0.5,0-0.9h0c-0.1,0.3-0.1,0.6-0.2,1l-1.3,6.2h-0.8l1.6-7.5h1.5l0.2,5.8c0,0.3,0,0.6-0.1,1.1h0
				c0.1-0.4,0.3-0.7,0.4-1.1L238,189.1z"/>
		</g>
		<g>
			<path fill="#83671E" d="M239.3,196.6l1.6-7.5h2c0.6,0,1.3,0.1,1.6,0.5c0.4,0.4,0.4,1,0.3,1.6c-0.2,0.8-0.6,1.6-1.5,2
				c-0.6,0.2-1.4,0.2-2,0.2h-0.5l-0.7,3.2H239.3z M241,192.6h0.8c1.1,0,1.9-0.2,2.1-1.5c0.3-1.2-0.5-1.4-1.5-1.4h-0.9L241,192.6z"/>
		</g>
		<g>
			<path fill="#83671E" d="M244.5,196.6l1.6-7.5h3.7l-0.2,0.8h-2.9l-0.5,2.5h2.7l-0.2,0.7h-2.7l-0.6,2.8h2.9l-0.2,0.7H244.5z"/>
		</g>
		<g>
			<path fill="#83671E" d="M252.4,189.1h1.1l0.5,7.5h-0.9l-0.1-2.2h-2.4l-1,2.2h-0.9L252.4,189.1z M252.8,189.7L252.8,189.7l-1.9,4
				h2L252.8,189.7z"/>
		</g>
		<g>
			<path fill="#83671E" d="M260,189.1h0.8l-1.6,7.5h-1.4l-0.8-6c0-0.3-0.1-0.7,0-1.1h0c-0.1,0.4-0.2,0.8-0.2,1.1l-1.3,6h-0.8
				l1.6-7.5h1.3l0.8,6.1c0,0.2,0.1,0.5,0.1,0.8h0c0-0.3,0.1-0.6,0.2-0.8L260,189.1z"/>
		</g>
		<g>
			<path fill="#83671E" d="M263.7,189.1h1.1l0.5,7.5h-0.9l-0.1-2.2h-2.4l-1,2.2H260L263.7,189.1z M264.1,189.7L264.1,189.7l-1.9,4h2
				L264.1,189.7z"/>
		</g>
		<g>
			<path fill="#83671E" d="M270.4,191c0.2-0.8-0.1-1.4-0.9-1.4c-1.2,0-1.5,0.8-1.6,1.3c-0.1,0.5,0,0.8,0.5,1
				c0.4,0.1,0.7,0.3,1.1,0.4c1.3,0.5,1.5,1,1.3,2c-0.3,1.4-1.4,2.2-2.8,2.2c-0.7,0-1.6-0.2-1.8-1.2c-0.1-0.4,0.1-1,0.1-1.4h0.8
				c-0.3,1.1-0.2,1.8,1,1.8c0.8,0,1.5-0.4,1.7-1.3c0.2-1.1-0.2-1.1-0.9-1.4c-0.4-0.2-1-0.4-1.3-0.6c-0.6-0.4-0.7-1-0.5-1.7
				c0.3-1.2,1.3-2,2.5-2c1.4,0,2.1,0.7,1.7,2.1H270.4z"/>
		</g>
	</g>
	<g>
		<g>
			<path fill="#83671E" d="M317.6,122.1h0.8l-1.6,7.5h-1.4l-0.8-6c0-0.3-0.1-0.7,0-1.1h0c-0.1,0.4-0.2,0.8-0.2,1.1l-1.3,6h-0.8
				l1.6-7.5h1.3l0.8,6.1c0,0.2,0.1,0.5,0.1,0.8h0c0-0.3,0.1-0.6,0.2-0.8L317.6,122.1z"/>
		</g>
		<g>
			<path fill="#83671E" d="M318.3,129.6l1.6-7.5h3.7l-0.2,0.8h-2.9l-0.5,2.5h2.7l-0.2,0.7h-2.7l-0.6,2.8h2.9l-0.2,0.7H318.3z"/>
		</g>
		<g>
			<path fill="#83671E" d="M326.4,122.1h1.1l0.5,7.5h-0.9l-0.1-2.2h-2.4l-1,2.2h-0.9L326.4,122.1z M326.9,122.7L326.9,122.7l-1.9,4
				h2L326.9,122.7z"/>
		</g>
	</g>
</g>
</svg>
